<?xml version="1.0" standalone="no"?><!DOCTYPE svg PUBLIC "-//W3C//DTD SVG 1.1//EN" "http://www.w3.org/Graphics/SVG/1.1/DTD/svg11.dtd"><svg t="1762050545246" class="icon" viewBox="0 0 1306 1024" version="1.1" xmlns="http://www.w3.org/2000/svg" p-id="11710" xmlns:xlink="http://www.w3.org/1999/xlink" width="255.078125" height="200"><path d="M73.427178 761.010239c0-0.87372 1.74744-56.791809 37.569966-124.068259 31.453925-60.286689 97.856655-140.668942 230.662116-184.354949l4.368601-1.747441 4.3686 1.747441c25.337884 9.610922 52.423208 13.979522 78.634813 13.979522 20.095563 0 36.696246-16.600683 36.696245-36.696246 0-20.095563-16.600683-36.696246-36.696245-36.696246-87.372014 0-159.017065-71.645051-159.017065-159.890785 0-88.245734 71.645051-159.890785 159.017065-159.890785 21.843003 0 42.812287 4.368601 62.034129 13.105803 4.368601 1.74744 9.610922 2.62116 14.853243 2.62116 14.853242 0 27.959044-8.737201 34.075085-21.843003 7.863481-18.348123-0.87372-40.191126-19.221843-48.054608C491.939124 6.116041 461.358919 0 429.904994 0 301.468134 0 197.495438 104.846416 197.495438 233.283276c0 56.791809 20.969283 111.836177 58.539249 154.648465l12.232082 13.979522-16.600683 7.863481C10.519328 524.232082 0.034687 749.651877 0.034687 758.389078c-0.87372 20.095563 14.853242 36.696246 34.948805 37.569966h0.87372l0.87372 3.494881v-3.494881c20.095563 0.87372 35.822526-14.853242 36.696246-34.948805z" fill="#4598FF" p-id="11711"></path><path d="M896.471547 319.78157c-13.105802-5.242321-27.959044 0.87372-33.201365 13.979522-12.232082 31.453925-38.443686 69.023891-93.488055 69.023891-54.170648 0-80.382253-36.696246-93.488055-68.150171-5.242321-13.105802-20.095563-19.221843-33.201365-13.979522-13.105802 5.242321-19.221843 20.095563-13.979522 33.201365 25.337884 62.90785 76.887372 99.604096 139.795222 99.604096 63.78157 0 115.331058-36.696246 140.668942-100.477816 6.116041-13.105802 0-27.959044-13.105802-33.201365z" fill="#4598FF" p-id="11712"></path><path d="M1273.918646 809.938567h-117.078499V692.860068c0-17.474403-14.853242-32.327645-32.327645-32.327645s-32.327645 14.853242-32.327645 32.327645v117.078499h-117.078498c-17.474403 0-32.327645 14.853242-32.327645 32.327645s14.853242 32.327645 32.327645 32.327645H1092.184857v117.078498c0 17.474403 14.853242 32.327645 32.327645 32.327645 18.348123 0 32.327645-14.853242 32.327645-32.327645v-117.078498h117.078499c17.474403 0 32.327645-14.853242 32.327645-32.327645 0-18.348123-14.853242-32.327645-32.327645-32.327645z" fill="#4598FF" p-id="11713"></path><path d="M968.116598 532.969283l-19.221843-8.737201 14.853242-13.979522c56.791809-54.170648 87.372014-126.68942 87.372014-203.576792 0-155.522184-127.56314-283.085324-283.959044-283.085324C610.765062 22.716724 483.201922 150.279863 483.201922 305.802048c0 75.139932 29.706485 145.911263 83.003413 199.208191l14.853242 14.853242-19.221843 7.863481C470.96984 567.918089 405.44083 621.215017 358.259943 676.259386c-19.221843 21.843003-36.696246 49.802048-47.180888 68.15017-50.675768 89.993174-60.286689 165.133106-60.286689 166.006826-2.62116 20.969283 13.105802 39.317406 33.201365 41.938567h1.74744c20.095563 1.74744 38.443686-13.105802 41.064847-33.201365 0.87372-6.989761 15.726962-112.709898 103.098976-214.061434 51.549488-53.296928 124.94198-102.225256 228.914676-135.426621l4.3686-1.74744 4.368601 1.74744c62.90785 23.590444 130.1843 24.464164 193.09215 2.62116l4.368601-1.74744 4.368601 1.74744c54.170648 17.474403 102.225256 41.064846 145.037542 69.897611 22.716724-15.726962 47.180887-27.959044 73.392492-36.696245-35.822526-27.959044-76.013652-52.423208-119.699659-72.518772z m-200.081911-17.474402c-116.204778 0-210.566553-94.361775-210.566553-209.692833s94.361775-209.692833 210.566553-209.692833S978.60124 190.47099 978.60124 305.802048s-94.361775 209.692833-210.566553 209.692833z" fill="#4598FF" p-id="11714"></path></svg>