<?xml version="1.0" standalone="no"?><!DOCTYPE svg PUBLIC "-//W3C//DTD SVG 1.1//EN" "http://www.w3.org/Graphics/SVG/1.1/DTD/svg11.dtd"><svg t="1762050765052" class="icon" viewBox="0 0 1024 1024" version="1.1" xmlns="http://www.w3.org/2000/svg" p-id="25529" xmlns:xlink="http://www.w3.org/1999/xlink" width="200" height="200"><path d="M281.056 173.984a131.296 131.296 0 1 1 262.56 0.032 131.296 131.296 0 0 1-262.56-0.032z m194.336 220.672c1.312-28.576 11.168-55.04 26.976-76.896a166.72 166.72 0 0 0-34.368-3.552h-111.36c-11.744 0-23.2 1.216-34.272 3.52 16.832 23.36 26.912 51.904 27.072 82.784a142.592 142.592 0 0 1 68.928-17.664c20.256 0 39.52 4.224 57.024 11.84z m22.208 11.776a149.888 149.888 0 0 1 69.76 111.328 120.192 120.192 0 0 0 51.104 11.456 120.96 120.96 0 0 0 0-241.856 120.896 120.896 0 0 0-120.832 119.104z m-79.232 247.648a120.96 120.96 0 1 0-0.032-241.92 120.96 120.96 0 0 0 0.032 241.92z m51.328 8.224h-102.624a155.04 155.04 0 0 0-154.848 154.88v125.504l0.32 1.952 8.64 2.688c81.472 25.44 152.288 33.952 210.56 33.952 113.792 0 179.776-32.448 183.84-34.528l8.096-4.096h0.864v-125.504a155.008 155.008 0 0 0-154.816-154.848z m200.096-124.832h-101.856a149.152 149.152 0 0 1-45.984 103.808 184 184 0 0 1 131.424 176.064v38.688c100.544-3.712 158.464-32.192 162.304-34.112l8.096-4.096h0.864v-125.536a155.008 155.008 0 0 0-154.816-154.816z m27.232-252.736a149.76 149.76 0 0 1 69.728 111.328 120.32 120.32 0 0 0 51.104 11.456 120.96 120.96 0 1 0-120.832-122.752z m172.128 131.04h-101.824a149.152 149.152 0 0 1-45.984 103.808 184 184 0 0 1 131.424 176.096v38.688c100.512-3.68 158.464-32.16 162.304-34.112l8.064-4.096H1024v-125.536a155.008 155.008 0 0 0-154.848-154.816zM206.176 529.216c23.648 0 45.664-6.912 64.32-18.688a149.664 149.664 0 0 1 56.256-95.456c0.128-2.272 0.32-4.512 0.32-6.816a120.96 120.96 0 1 0-120.928 120.928z m108.608 112.064A149.28 149.28 0 0 1 268.8 538.016c-3.776-0.288-7.488-0.576-11.36-0.576H154.848A155.04 155.04 0 0 0 0 692.288v125.504l0.32 1.952 8.64 2.688c65.344 20.448 123.712 29.824 174.4 32.768v-37.888a183.968 183.968 0 0 1 131.424-176.064z" p-id="25530"></path></svg>